<svg width="508" height="508" viewBox="0 0 508 508" fill="none" xmlns="http://www.w3.org/2000/svg">
<g filter="url(#filter0_d_12_17)">
<rect width="500" height="500" transform="translate(4)" fill="#0A040B" fill-opacity="0.16"/>
<path d="M58.5178 209.611V282.444H49.6912V209.611H58.5178ZM89.8855 231.139L67.4868 255.084L54.9587 268.077L54.2468 258.736L63.2159 248.019L79.1608 231.139H89.8855ZM81.8657 282.444L63.548 257.977L68.1037 250.153L92.2108 282.444H81.8657ZM107.681 241.333V282.444H98.8547V231.139H107.207L107.681 241.333ZM105.878 254.848L101.797 254.705C101.828 251.196 102.287 247.956 103.173 244.985C104.059 241.982 105.372 239.374 107.112 237.161C108.852 234.948 111.019 233.241 113.613 232.04C116.207 230.807 119.213 230.19 122.63 230.19C125.034 230.19 127.249 230.538 129.273 231.233C131.298 231.897 133.054 232.956 134.541 234.41C136.028 235.865 137.182 237.73 138.005 240.006C138.828 242.282 139.239 245.032 139.239 248.256V282.444H130.46V248.683C130.46 245.996 130.001 243.847 129.083 242.234C128.197 240.622 126.932 239.453 125.287 238.726C123.642 237.967 121.712 237.588 119.498 237.588C116.903 237.588 114.736 238.046 112.996 238.963C111.256 239.879 109.864 241.144 108.82 242.756C107.776 244.368 107.017 246.217 106.542 248.304C106.099 250.359 105.878 252.54 105.878 254.848ZM139.144 250.011L133.259 251.813C133.291 248.999 133.75 246.296 134.636 243.704C135.553 241.112 136.866 238.805 138.574 236.781C140.314 234.758 142.45 233.162 144.981 231.992C147.512 230.791 150.406 230.19 153.665 230.19C156.418 230.19 158.854 230.554 160.973 231.281C163.124 232.008 164.928 233.13 166.383 234.648C167.87 236.133 168.993 238.046 169.752 240.385C170.512 242.724 170.891 245.506 170.891 248.731V282.444H162.065V248.636C162.065 245.759 161.606 243.53 160.688 241.95C159.803 240.338 158.537 239.215 156.892 238.583C155.279 237.919 153.349 237.588 151.103 237.588C149.173 237.588 147.464 237.919 145.977 238.583C144.49 239.247 143.241 240.164 142.229 241.333C141.216 242.471 140.441 243.783 139.903 245.269C139.397 246.755 139.144 248.335 139.144 250.011ZM193.717 209.611V282.444H184.89V209.611H193.717Z" fill="#7B00FF"/>
<path d="M310.581 231.139H318.553V281.354C318.553 285.874 317.638 289.731 315.801 292.924C313.967 296.116 311.405 298.535 308.113 300.179C304.855 301.854 301.09 302.692 296.819 302.692C295.048 302.692 292.96 302.407 290.555 301.838C288.183 301.301 285.842 300.368 283.532 299.04C281.254 297.745 279.34 295.99 277.79 293.777L282.393 288.561C284.544 291.154 286.791 292.955 289.132 293.967C291.505 294.978 293.845 295.484 296.155 295.484C298.939 295.484 301.343 294.963 303.369 293.919C305.392 292.876 306.96 291.327 308.067 289.273C309.205 287.249 309.776 284.752 309.776 281.781V242.424L310.581 231.139ZM275.227 257.361V256.365C275.227 252.445 275.686 248.889 276.604 245.696C277.553 242.471 278.897 239.705 280.637 237.398C282.409 235.09 284.544 233.32 287.044 232.087C289.543 230.822 292.359 230.19 295.491 230.19C298.718 230.19 301.533 230.759 303.937 231.897C306.374 233.004 308.43 234.632 310.108 236.781C311.814 238.899 313.159 241.46 314.141 244.463C315.121 247.466 315.801 250.864 316.18 254.658V259.02C315.832 262.782 315.152 266.165 314.141 269.168C313.159 272.171 311.814 274.731 310.108 276.849C308.43 278.967 306.374 280.595 303.937 281.733C301.502 282.84 298.654 283.393 295.396 283.393C292.327 283.393 289.543 282.745 287.044 281.449C284.576 280.153 282.456 278.335 280.685 275.996C278.913 273.656 277.553 270.906 276.604 267.745C275.686 264.552 275.227 261.091 275.227 257.361ZM284.006 256.365V257.361C284.006 259.921 284.26 262.324 284.766 264.568C285.304 266.812 286.11 268.788 287.186 270.495C288.293 272.202 289.701 273.546 291.41 274.526C293.118 275.474 295.159 275.948 297.531 275.948C300.443 275.948 302.847 275.332 304.745 274.099C306.643 272.866 308.146 271.238 309.254 269.215C310.392 267.192 311.277 264.995 311.911 262.624V251.196C311.563 249.458 311.024 247.782 310.297 246.17C309.602 244.526 308.684 243.072 307.545 241.808C306.438 240.512 305.062 239.484 303.415 238.726C301.77 237.967 299.842 237.588 297.626 237.588C295.222 237.588 293.15 238.093 291.41 239.105C289.701 240.085 288.293 241.444 287.186 243.183C286.11 244.89 285.304 246.881 284.766 249.157C284.26 251.402 284.006 253.804 284.006 256.365ZM365.155 231.139H373.127V281.354C373.127 285.874 372.209 289.731 370.375 292.924C368.541 296.116 365.978 298.535 362.687 300.179C359.428 301.854 355.664 302.692 351.392 302.692C349.62 302.692 347.533 302.407 345.129 301.838C342.756 301.301 340.415 300.368 338.106 299.04C335.827 297.745 333.914 295.99 332.364 293.777L336.965 288.561C339.119 291.154 341.364 292.955 343.704 293.967C346.078 294.978 348.418 295.484 350.728 295.484C353.513 295.484 355.917 294.963 357.942 293.919C359.965 292.876 361.533 291.327 362.641 289.273C363.779 287.249 364.349 284.752 364.349 281.781V242.424L365.155 231.139ZM329.801 257.361V256.365C329.801 252.445 330.259 248.889 331.177 245.696C332.126 242.471 333.472 239.705 335.211 237.398C336.983 235.09 339.119 233.32 341.617 232.087C344.116 230.822 346.932 230.19 350.065 230.19C353.29 230.19 356.106 230.759 358.51 231.897C360.948 233.004 363.004 234.632 364.679 236.781C366.388 238.899 367.733 241.46 368.715 244.463C369.694 247.466 370.375 250.864 370.753 254.658V259.02C370.405 262.782 369.725 266.165 368.715 269.168C367.733 272.171 366.388 274.731 364.679 276.849C363.004 278.967 360.948 280.595 358.51 281.733C356.075 282.84 353.229 283.393 349.968 283.393C346.901 283.393 344.116 282.745 341.617 281.449C339.149 280.153 337.029 278.335 335.257 275.996C333.487 273.656 332.126 270.906 331.177 267.745C330.259 264.552 329.801 261.091 329.801 257.361ZM338.579 256.365V257.361C338.579 259.921 338.832 262.324 339.339 264.568C339.876 266.812 340.684 268.788 341.758 270.495C342.866 272.202 344.275 273.546 345.983 274.526C347.692 275.474 349.733 275.948 352.103 275.948C355.014 275.948 357.421 275.332 359.318 274.099C361.216 272.866 362.717 271.238 363.825 269.215C364.966 267.192 365.85 264.995 366.482 262.624V251.196C366.134 249.458 365.597 247.782 364.871 246.17C364.173 244.526 363.257 243.072 362.116 241.808C361.009 240.512 359.633 239.484 357.988 238.726C356.344 237.967 354.413 237.588 352.201 237.588C349.794 237.588 347.722 238.093 345.983 239.105C344.275 240.085 342.866 241.444 341.758 243.183C340.684 244.89 339.876 246.881 339.339 249.157C338.832 251.402 338.579 253.804 338.579 256.365ZM407.769 283.393C404.194 283.393 400.951 282.792 398.04 281.591C395.163 280.358 392.679 278.635 390.59 276.423C388.534 274.21 386.953 271.586 385.846 268.551C384.738 265.516 384.183 262.197 384.183 258.593V256.602C384.183 252.429 384.802 248.715 386.035 245.459C387.268 242.171 388.945 239.389 391.066 237.113C393.186 234.837 395.59 233.114 398.278 231.945C400.969 230.775 403.751 230.19 406.631 230.19C410.301 230.19 413.465 230.822 416.122 232.087C418.81 233.351 421.01 235.122 422.718 237.398C424.427 239.642 425.693 242.298 426.514 245.364C427.337 248.399 427.749 251.718 427.749 255.322V259.257H389.403V252.097H418.969V251.433C418.841 249.157 418.368 246.944 417.544 244.795C416.754 242.645 415.488 240.875 413.749 239.484C412.01 238.093 409.636 237.398 406.631 237.398C404.636 237.398 402.802 237.824 401.125 238.678C399.449 239.5 398.009 240.733 396.807 242.377C395.605 244.02 394.672 246.028 394.007 248.399C393.342 250.77 393.012 253.504 393.012 256.602V258.593C393.012 261.028 393.342 263.319 394.007 265.469C394.702 267.587 395.7 269.452 396.997 271.064C398.327 272.676 399.922 273.941 401.79 274.858C403.687 275.774 405.838 276.233 408.245 276.233C411.345 276.233 413.971 275.6 416.122 274.336C418.273 273.072 420.155 271.38 421.769 269.262L427.084 273.483C425.977 275.158 424.567 276.754 422.859 278.272C421.15 279.789 419.048 281.022 416.549 281.97C414.081 282.918 411.155 283.393 407.769 283.393ZM446.777 239.2V282.444H437.997V231.139H446.539L446.777 239.2ZM462.816 230.854L462.77 239.01C462.041 238.852 461.345 238.757 460.683 238.726C460.049 238.662 459.322 238.631 458.499 238.631C456.473 238.631 454.685 238.947 453.135 239.579C451.586 240.211 450.273 241.096 449.197 242.234C448.123 243.372 447.268 244.732 446.634 246.312C446.033 247.861 445.639 249.568 445.447 251.433L442.982 252.856C442.982 249.758 443.281 246.85 443.882 244.131C444.516 241.412 445.481 239.01 446.777 236.924C448.074 234.806 449.718 233.162 451.713 231.992C453.736 230.791 456.141 230.19 458.926 230.19C459.557 230.19 460.286 230.269 461.11 230.427C461.931 230.554 462.501 230.696 462.816 230.854Z" fill="#7B00FF"/>
<path d="M260.394 255.611C260.394 269.019 249.516 279.889 236.097 279.889C222.678 279.889 211.8 269.019 211.8 255.611C211.8 242.203 222.678 231.333 236.097 231.333C249.516 231.333 260.394 242.203 260.394 255.611Z" stroke="#7B00FF" stroke-width="2"/>
<path fill-rule="evenodd" clip-rule="evenodd" d="M236.097 271.711C244.996 271.711 252.21 264.503 252.21 255.611C252.21 246.719 244.996 239.511 236.097 239.511C227.198 239.511 219.984 246.719 219.984 255.611C219.984 264.503 227.198 271.711 236.097 271.711ZM229.192 254.844C232.582 254.844 235.33 252.098 235.33 248.711C235.33 245.324 232.582 242.578 229.192 242.578C225.801 242.578 223.053 245.324 223.053 248.711C223.053 252.098 225.801 254.844 229.192 254.844Z" fill="#7B00FF"/>
</g>
<defs>
<filter id="filter0_d_12_17" x="0" y="0" width="508" height="508" filterUnits="userSpaceOnUse" color-interpolation-filters="sRGB">
<feFlood flood-opacity="0" result="BackgroundImageFix"/>
<feColorMatrix in="SourceAlpha" type="matrix" values="0 0 0 0 0 0 0 0 0 0 0 0 0 0 0 0 0 0 127 0" result="hardAlpha"/>
<feOffset dy="4"/>
<feGaussianBlur stdDeviation="2"/>
<feComposite in2="hardAlpha" operator="out"/>
<feColorMatrix type="matrix" values="0 0 0 0 0 0 0 0 0 0 0 0 0 0 0 0 0 0 0.25 0"/>
<feBlend mode="normal" in2="BackgroundImageFix" result="effect1_dropShadow_12_17"/>
<feBlend mode="normal" in="SourceGraphic" in2="effect1_dropShadow_12_17" result="shape"/>
</filter>
</defs>
</svg>
